<svg xmlns="http://www.w3.org/2000/svg" viewBox="0 0 1000 667" width="1000" height="667" role="img" aria-label="IELTS mock test in progress"><defs><linearGradient id="gs2" x1="0" y1="0" x2="0.914" y2="0.407"><stop offset="0" stop-color="#3f1220"/><stop offset="0.55" stop-color="#8e3350"/><stop offset="1" stop-color="#d99cb0"/></linearGradient><linearGradient id="vs2" x1="0" y1="1" x2="0" y2="0"><stop offset="0" stop-color="#000" stop-opacity="0.38"/><stop offset="1" stop-color="#000" stop-opacity="0"/></linearGradient></defs><rect width="1000" height="667" fill="url(#gs2)"/><circle cx="703" cy="142" r="220" fill="none" stroke="#ffffff" stroke-width="1.5" opacity="0.2"/><circle cx="681" cy="95" r="350" fill="none" stroke="#ffffff" stroke-width="1.5" opacity="0.13"/><circle cx="379" cy="174" r="480" fill="none" stroke="#ffffff" stroke-width="1.5" opacity="0.11"/><circle cx="607" cy="138" r="610" fill="none" stroke="#ffffff" stroke-width="1.5" opacity="0.19"/><circle cx="304" cy="199" r="740" fill="none" stroke="#ffffff" stroke-width="1.5" opacity="0.22"/><g fill="#3f1220" opacity="0.55" transform="translate(120 356) scale(1.05)"><circle cx="0" cy="0" r="22"/><path d="M-30 34 Q0 8 30 34 L30 130 L-30 130 Z"/></g><g fill="#3f1220" opacity="0.55" transform="translate(270 367) scale(1.22)"><circle cx="0" cy="0" r="22"/><path d="M-30 34 Q0 8 30 34 L30 130 L-30 130 Z"/></g><g fill="#3f1220" opacity="0.55" transform="translate(420 401) scale(1.27)"><circle cx="0" cy="0" r="22"/><path d="M-30 34 Q0 8 30 34 L30 130 L-30 130 Z"/></g><g fill="#3f1220" opacity="0.55" transform="translate(570 388) scale(0.94)"><circle cx="0" cy="0" r="22"/><path d="M-30 34 Q0 8 30 34 L30 130 L-30 130 Z"/></g><rect width="1000" height="667" fill="url(#vs2)"/></svg>